<svg xmlns:xlink="http://www.w3.org/1999/xlink" xmlns="http://www.w3.org/2000/svg" viewBox="0 0 24 24" width="24" height="24" fill="currentColor" class="x19dipnz x1lliihq x1tzjh5l x1k90msu x2h7rmj x1qfuztq" style="--color:var(--secondary-icon)"><path d="M.5 12c0 6.351 5.149 11.5 11.5 11.5S23.5 18.351 23.5 12 18.351.5 12 .5.5 5.649.5 12zm2 0c0-.682.072-1.348.209-1.99a2 2 0 0 1 0 3.98A9.539 9.539 0 0 1 2.5 12zm.84-3.912A9.502 9.502 0 0 1 12 2.5a9.502 9.502 0 0 1 8.66 5.588 4.001 4.001 0 0 0 0 7.824 9.514 9.514 0 0 1-1.755 2.613A5.002 5.002 0 0 0 14 14.5h-4a5.002 5.002 0 0 0-4.905 4.025 9.515 9.515 0 0 1-1.755-2.613 4.001 4.001 0 0 0 0-7.824zM12 5a4 4 0 1 1 0 8 4 4 0 0 1 0-8zm-2 4a2 2 0 1 0 4 0 2 2 0 0 0-4 0zm11.291 1.01a9.538 9.538 0 0 1 0 3.98 2 2 0 0 1 0-3.98zM16.99 20.087A9.455 9.455 0 0 1 12 21.5c-1.83 0-3.54-.517-4.99-1.414a1.004 1.004 0 0 1-.01-.148V19.5a3 3 0 0 1 3-3h4a3 3 0 0 1 3 3v.438a1 1 0 0 1-.01.148z" fill="#65676B"></path></svg>